<?xml version="1.0" standalone="no"?>
<!DOCTYPE svg PUBLIC "-//W3C//DTD SVG 20010904//EN"
 "http://www.w3.org/TR/2001/REC-SVG-20010904/DTD/svg10.dtd">
<svg version="1.0" xmlns="http://www.w3.org/2000/svg"
 width="882.000000pt" height="910.000000pt" viewBox="0 0 882.000000 910.000000"
 preserveAspectRatio="xMidYMid meet">

<g transform="translate(0.000000,910.000000) scale(0.100000,-0.100000)"
fill="#000000" stroke="none">
<path d="M5860 8689 c-785 -56 -1408 -581 -1558 -1314 -88 -427 -33 -867 157
-1280 22 -47 35 -85 30 -85 -5 0 -36 -25 -69 -55 -33 -30 -64 -55 -70 -55 -5
0 -23 -12 -39 -27 -95 -89 -171 -156 -192 -171 -13 -9 -35 -27 -49 -39 -14
-13 -29 -23 -35 -23 -15 0 -75 -56 -68 -64 3 -3 1 -6 -6 -6 -7 0 -36 -22 -64
-49 -77 -72 -107 -99 -139 -124 -60 -46 -100 -81 -288 -252 l-35 -32 3 46 c2
31 -3 58 -16 83 -19 37 -19 37 4 77 23 41 17 64 -11 41 -12 -10 -15 -9 -15 9
0 11 -4 21 -10 21 -5 0 -10 7 -10 15 0 9 -7 18 -15 21 -8 4 -15 15 -15 25 0
10 -6 18 -12 16 -8 -1 -12 6 -10 16 2 13 -2 17 -15 15 -10 -2 -17 2 -16 10 2
6 -6 12 -18 12 -15 0 -19 5 -15 15 4 10 -1 15 -14 15 -11 0 -20 5 -20 10 0 6
-6 10 -12 9 -34 -4 -50 2 -44 17 4 10 1 14 -12 13 -9 -2 -34 5 -56 14 -21 9
-41 17 -45 17 -4 0 -12 14 -18 31 -11 28 -15 31 -43 26 -22 -5 -30 -3 -30 8 0
20 -16 19 -24 0 -5 -14 -10 -14 -43 0 -45 19 -51 24 -36 33 18 11 2 27 -29 29
-19 1 -28 -3 -28 -12 0 -19 4 -19 -65 9 l-58 23 -35 -20 -34 -20 6 20 c6 20 4
20 -29 13 -20 -4 -35 -4 -35 1 0 5 9 9 20 9 23 0 27 15 5 24 -8 3 -20 -1 -27
-8 -13 -14 -51 -10 -42 5 14 23 -17 6 -40 -22 -19 -22 -26 -26 -26 -14 0 14
-3 15 -14 6 -17 -14 -79 -24 -71 -12 3 5 -2 11 -10 14 -9 4 -12 1 -9 -7 3 -8
-3 -12 -17 -12 -12 1 -24 -4 -26 -11 -3 -7 4 -10 19 -7 l23 5 -22 -17 c-15
-10 -23 -27 -23 -45 0 -37 -30 -28 -31 10 0 14 -3 20 -6 13 -2 -6 -9 -10 -14
-6 -5 3 -12 -2 -15 -11 -6 -13 -8 -14 -15 -3 -5 7 -9 8 -9 2 0 -6 -12 -9 -29
-6 -22 3 -32 -1 -40 -17 -7 -12 -18 -21 -27 -21 -8 0 -17 -7 -20 -15 -4 -8
-10 -13 -14 -10 -4 2 -18 -4 -30 -15 -13 -11 -29 -20 -36 -20 -7 0 -14 -6 -17
-12 -2 -7 -7 -10 -11 -7 -11 11 25 113 84 234 72 147 158 275 270 397 65 70
74 84 39 55 -25 -20 -51 -37 -57 -37 -6 0 -15 -6 -19 -12 -4 -7 -26 -22 -48
-33 -22 -11 -47 -27 -55 -35 -8 -9 -37 -33 -65 -55 -27 -21 -62 -52 -77 -67
-15 -15 -31 -28 -36 -28 -17 0 -62 -41 -56 -51 3 -5 0 -8 -8 -7 -7 2 -12 -3
-10 -10 1 -8 -2 -11 -7 -8 -10 7 -186 -183 -227 -244 -12 -19 -39 -57 -59 -85
-70 -99 -111 -168 -200 -345 -62 -124 -134 -386 -160 -585 -20 -157 -20 -463
0 -619 75 -568 331 -1133 719 -1586 31 -36 56 -68 56 -72 0 -4 -13 -22 -29
-40 -77 -89 -166 -208 -187 -253 -52 -110 -24 -251 72 -354 75 -81 151 -115
259 -115 119 -1 154 19 301 172 l122 125 78 -50 c256 -162 482 -270 753 -357
924 -298 1818 -128 2471 470 83 75 174 173 150 159 -8 -4 8 16 36 46 108 116
303 399 304 442 0 7 9 23 20 37 11 14 20 37 20 51 0 14 9 36 20 49 11 13 20
28 21 34 4 55 9 77 23 98 23 35 49 101 37 93 -15 -9 -14 1 8 43 10 20 22 57
26 82 4 25 12 50 17 57 5 7 7 17 3 23 -3 5 0 13 8 16 20 7 43 139 25 150 -4 3
-4 13 1 23 5 9 15 55 21 101 6 47 13 94 15 105 3 11 -3 2 -12 -20 -35 -85
-123 -246 -169 -312 -60 -84 -171 -202 -243 -259 l-54 -43 -19 24 c-22 29 -22
33 -1 37 15 3 15 4 -1 21 -11 11 -26 15 -37 12 -11 -4 -19 -2 -19 5 0 6 5 8
10 5 6 -3 10 1 10 10 0 8 -8 19 -17 23 -10 4 -18 14 -18 22 0 13 -12 20 -75
50 -8 4 -14 16 -12 27 2 12 -4 23 -13 26 -8 4 -15 2 -15 -3 0 -6 -5 -10 -12
-10 -6 0 -9 3 -5 6 9 10 -25 43 -39 37 -14 -5 -16 -1 -16 55 0 17 -5 32 -9 32
-5 0 -9 -4 -9 -10 0 -5 -5 -10 -11 -10 -5 0 -8 4 -5 9 3 5 -1 11 -9 15 -8 3
-15 1 -15 -5 0 -6 -7 -3 -16 6 -9 9 -23 14 -31 11 -8 -3 -12 -2 -9 2 8 14 -7
26 -62 51 -35 17 -48 27 -40 33 11 6 10 8 0 8 -7 0 -17 10 -22 23 -5 12 -9 16
-9 10 -1 -7 -5 -13 -11 -13 -5 0 -6 8 -3 18 6 15 5 15 -11 3 -13 -11 -16 -11
-14 -2 2 8 -5 15 -16 16 -30 5 -44 24 -26 35 11 7 11 10 2 10 -7 0 -11 4 -7 9
3 6 -3 8 -14 6 -14 -2 -22 3 -28 18 -9 27 -10 33 -12 52 0 8 -9 15 -18 15 -16
0 -16 -2 -3 -11 11 -8 6 -9 -20 -4 -19 4 -57 9 -83 10 -27 2 -51 5 -53 8 -3 3
-17 -6 -31 -19 -17 -16 -33 -22 -42 -18 -9 4 -31 9 -49 12 l-34 4 68 37 c37
20 72 45 78 56 6 11 13 22 16 25 17 17 78 116 120 197 14 26 28 50 31 53 4 3
26 41 50 85 23 44 62 109 84 145 44 68 86 142 142 250 19 36 52 90 74 120 21
30 37 63 35 73 -3 10 2 17 11 17 10 0 14 6 10 20 -3 11 -2 18 3 15 12 -8 33
23 26 40 -3 8 0 14 7 12 7 -1 12 8 11 21 0 16 4 21 15 18 525 -144 1054 -103
1480 114 715 364 1048 1163 835 2002 -49 195 -145 423 -256 606 -128 212 -351
468 -542 622 -332 268 -753 459 -1135 515 -58 8 -128 20 -156 25 -77 14 -208
18 -335 9z m361 -43 c274 -34 599 -136 815 -256 122 -68 157 -89 235 -141 486
-325 843 -810 973 -1324 56 -221 82 -496 65 -686 -11 -127 -62 -337 -114 -465
-90 -225 -230 -412 -393 -523 -26 -18 -36 -23 -22 -11 68 59 112 106 127 134
8 17 23 40 33 51 9 11 27 38 40 60 17 29 -5 9 -79 -67 -57 -59 -107 -105 -112
-102 -5 3 2 17 16 32 14 15 28 35 31 45 3 9 9 17 14 17 5 0 7 7 4 15 -3 8 7
32 23 52 46 60 63 91 63 113 0 11 5 20 11 20 5 0 8 -4 4 -9 -3 -5 -1 -12 4
-15 5 -4 9 13 9 37 -1 23 8 63 20 89 11 26 18 47 14 47 -25 -4 -33 3 -28 24 3
12 3 16 0 10 -3 -7 -12 -13 -20 -13 -15 0 -15 31 0 105 6 29 6 29 -5 5 -7 -14
-13 -27 -14 -30 -1 -3 -7 -16 -13 -30 -10 -22 -11 -18 -6 23 5 38 3 47 -9 47
-9 0 -21 -8 -26 -17 -9 -16 -10 -16 -11 3 0 31 -27 37 -52 14 -16 -14 -18 -20
-7 -20 17 -1 -50 -59 -68 -60 -7 0 -13 -4 -13 -10 0 -16 -41 -33 -52 -22 -7 7
-27 -1 -60 -25 -29 -20 -56 -32 -65 -28 -9 3 -26 -4 -39 -16 -13 -12 -30 -19
-38 -16 -9 4 -16 3 -16 -2 0 -8 -66 -36 -105 -44 -18 -4 -18 -5 5 -15 20 -8
32 -6 58 9 19 11 38 17 43 13 14 -8 3 -20 -34 -37 -30 -15 -38 -15 -83 -1 -38
11 -60 12 -98 4 -39 -8 -51 -8 -58 2 -5 9 -10 10 -15 3 -15 -20 -91 -39 -106
-27 -9 8 -30 9 -68 3 -30 -5 -61 -5 -69 0 -8 4 -10 9 -5 9 6 0 3 5 -5 10 -8 5
-34 6 -57 3 -25 -3 -48 -1 -56 5 -7 6 -32 15 -55 21 -39 8 -42 7 -30 -7 11
-13 10 -15 -4 -9 -10 3 -18 4 -18 1 0 -3 14 -10 31 -16 22 -8 27 -13 18 -19
-11 -6 -10 -11 6 -23 11 -9 24 -16 28 -16 5 0 6 -9 2 -19 -4 -15 1 -25 21 -38
l27 -17 -24 -7 c-13 -3 -30 -1 -37 4 -7 6 -38 11 -69 13 -54 3 -55 3 -38 -16
10 -11 24 -20 31 -20 7 0 16 -5 20 -12 5 -7 3 -8 -7 -3 -8 5 -7 0 4 -12 9 -11
17 -24 17 -30 0 -5 10 -18 22 -29 12 -10 18 -13 13 -5 -4 7 6 3 24 -10 17 -12
31 -28 31 -33 1 -25 91 -106 124 -112 24 -5 90 -33 78 -33 -24 -2 -1 -21 24
-21 26 0 58 -23 47 -34 -4 -3 3 -6 15 -6 11 0 24 -4 27 -10 3 -6 19 -10 34
-10 16 0 40 -10 55 -21 24 -19 36 -21 104 -16 96 7 42 -8 -64 -18 -69 -7 -76
-6 -190 40 -246 98 -491 234 -692 385 -154 114 -324 279 -596 574 -308 335
-505 505 -772 667 -124 76 -367 196 -491 244 l-73 28 0 140 c0 427 150 797
440 1087 341 341 809 490 1331 426z m1637 -2798 c-7 -19 -38 -22 -38 -4 0 10
9 16 21 16 12 0 19 -5 17 -12z m-5358 -72 c0 -3 -4 -8 -10 -11 -5 -3 -10 -1
-10 4 0 6 5 11 10 11 6 0 10 -2 10 -4z m5235 -15 c3 -6 -10 -17 -30 -27 -19
-9 -35 -20 -35 -25 0 -5 -7 -9 -15 -9 -9 0 -3 12 18 35 33 35 51 43 62 26z
m201 -33 c-19 -26 -20 -20 -5 19 6 15 13 22 16 16 2 -7 -3 -23 -11 -35z
m-5089 0 c2 -17 0 -19 -7 -8 -5 8 -6 18 -4 22 8 12 10 10 11 -14z m4697 -47
c-24 -21 -64 -44 -64 -36 0 11 55 54 69 55 11 0 9 -5 -5 -19z m-4519 -10 c8
-14 -13 -24 -33 -16 -14 5 -14 7 -2 15 19 12 27 12 35 1z m3765 -81 c0 -5 -4
-10 -10 -10 -5 0 -10 5 -10 10 0 6 5 10 10 10 6 0 10 -4 10 -10z m-14 -155
c15 -11 16 -14 3 -15 -8 0 -24 7 -35 15 -15 11 -16 14 -3 15 8 0 24 -7 35 -15z
m1004 -129 c0 -2 -8 -10 -17 -17 -16 -13 -17 -12 -4 4 13 16 21 21 21 13z
m-337 -223 c-7 -2 -19 -2 -25 0 -7 3 -2 5 12 5 14 0 19 -2 13 -5z m-1543
-1797 c0 -3 -4 -8 -10 -11 -5 -3 -10 -1 -10 4 0 6 5 11 10 11 6 0 10 -2 10 -4z"/>
<path d="M4897 7783 c-4 -3 -7 -11 -7 -17 0 -6 5 -5 12 2 6 6 9 14 7 17 -3 3
-9 2 -12 -2z"/>
<path d="M4867 7743 c-4 -3 -7 -11 -7 -17 0 -6 5 -5 12 2 6 6 9 14 7 17 -3 3
-9 2 -12 -2z"/>
<path d="M4784 7701 c-4 -9 -8 -25 -8 -36 -1 -14 -7 -19 -19 -17 -25 4 -44
-14 -52 -49 -4 -16 -11 -29 -16 -29 -5 0 -16 -16 -24 -37 -8 -20 -18 -34 -21
-31 -3 3 1 22 10 41 10 26 11 37 3 40 -7 3 -13 -6 -14 -20 -2 -35 -35 -93 -51
-90 -8 1 -22 -18 -33 -46 -19 -49 -19 -49 1 -54 23 -6 23 -4 10 -38 -5 -14 -6
-24 -1 -21 4 3 17 -3 28 -14 12 -10 23 -16 26 -13 3 3 3 -4 0 -16 -3 -12 -9
-21 -14 -21 -5 0 -6 6 -3 14 7 19 -29 15 -37 -4 -4 -8 -2 -21 3 -27 6 -7 7
-21 4 -30 -6 -15 -5 -16 5 -5 7 6 22 12 34 12 11 0 16 -4 10 -8 -17 -12 -11
-36 14 -54 14 -9 28 -15 33 -12 4 3 8 -2 8 -10 0 -9 8 -16 19 -16 11 0 22 -6
24 -12 3 -7 8 2 12 20 10 46 28 53 20 8 -9 -43 -1 -46 20 -8 l16 27 -4 -32
c-3 -26 1 -34 22 -44 36 -17 77 -21 62 -6 -19 19 -13 38 12 36 47 -4 57 0 57
27 0 30 19 52 40 47 10 -3 9 0 -2 7 -22 13 -24 32 -3 24 10 -4 15 0 15 11 0
15 3 15 15 5 20 -17 23 -13 30 43 5 38 4 48 -9 53 -9 3 -16 12 -16 19 0 7 -6
15 -14 18 -12 5 -11 14 1 64 8 32 15 66 14 76 0 9 4 17 8 17 5 0 11 13 13 30
4 23 2 27 -8 19 -15 -13 -51 -3 -77 20 -17 15 -20 14 -33 -4 -13 -17 -14 -17
-14 -2 0 10 8 34 19 55 10 20 22 48 26 62 6 22 4 21 -24 -10 -16 -19 -30 -39
-31 -45 0 -5 -4 -16 -9 -24 -7 -11 -14 -10 -40 8 -17 12 -35 20 -40 16 -5 -3
-9 10 -8 29 1 20 6 32 13 29 7 -2 15 0 18 5 3 5 -3 12 -13 15 -12 3 -23 -2
-27 -12z m-26 -126 c-6 -14 -13 -23 -15 -21 -5 5 15 46 22 46 3 0 -1 -11 -7
-25z m172 -71 c-18 -21 -24 -10 -9 18 8 14 14 18 17 10 2 -7 -2 -19 -8 -28z
m44 -9 c-15 -22 -34 -34 -34 -20 0 14 26 45 38 45 9 0 8 -7 -4 -25z m-308 -32
c-10 -10 -19 5 -10 18 6 11 8 11 12 0 2 -7 1 -15 -2 -18z m164 -358 c0 -8 -7
-15 -15 -15 -8 0 -15 7 -15 15 0 8 7 15 15 15 8 0 15 -7 15 -15z"/>
<path d="M4976 7651 c-14 -22 -25 -62 -16 -56 16 10 42 65 31 65 -5 0 -12 -4
-15 -9z"/>
<path d="M5057 7513 c-12 -11 -8 -21 12 -28 18 -5 18 -8 6 -32 -14 -26 -12
-43 4 -43 12 0 42 83 33 91 -12 12 -48 20 -55 12z"/>
<path d="M4529 7478 c-7 -18 -9 -71 -2 -65 8 8 14 67 7 67 -2 0 -4 -1 -5 -2z"/>
<path d="M5086 7368 c-8 -42 16 -60 26 -20 5 15 6 33 3 40 -8 22 -22 13 -29
-20z"/>
<path d="M5066 7277 c-13 -63 -13 -79 1 -84 19 -7 21 -4 28 48 5 37 3 48 -9
52 -11 4 -17 -1 -20 -16z"/>
<path d="M5128 7219 c-2 -40 1 -53 14 -60 27 -14 28 -12 28 45 0 49 -9 66 -35
66 -2 0 -5 -23 -7 -51z"/>
<path d="M6175 2970 c3 -5 10 -10 16 -10 5 0 9 5 9 10 0 6 -7 10 -16 10 -8 0
-12 -4 -9 -10z"/>
</g>
</svg>
